<svg role="img" viewBox="0 0 24 24" xmlns="http://www.w3.org/2000/svg" id="Doordash--Streamline-Simple-Icons" height="24" width="24">
  <desc>
    Doordash Streamline Icon: https://streamlinehq.com
  </desc>
  <title>DoorDash</title>
  <path d="M23.071 8.409a6.09 6.09 0 0 0 -5.396 -3.228H0.584A0.589 0.589 0 0 0 0.17 6.184L3.894 9.93a1.752 1.752 0 0 0 1.242 0.516h12.049a1.554 1.554 0 1 1 0.031 3.108H8.91a0.589 0.589 0 0 0 -0.415 1.003l3.725 3.747a1.75 1.75 0 0 0 1.242 0.516h3.757c4.887 0 8.584 -5.225 5.852 -10.413" fill="#ff0600" stroke-width="1"></path>
</svg>